# xmcd
#
# Track frame offsets:
#       150
#       17930
#       42907
#       66154
#       86367
#       111448
#       130143
#       153314
#       171789
#       191791
#       216487
#       234208
#       249076
#       274840
#       298047
#       316973
#
# Disc length: 4518 seconds
#
# Revision: 0
# Processed by: cddbd v1.5.2PL0 Copyright (c) Steve Scherf et al.
# Submitted via: WaveLab 4.01
#
DISCID=e411a410
DTITLE=Various Artist - Cafe Del Mar 14
DYEAR=2007
DGENRE=Chill Out
TTITLE0=Light Of Aidan Feat. Note For A Child - Loveing you
TTITLE1=Andrey Denisov - Night Highway
TTITLE2=Kitty The Bill - Cabriolet Tour
TTITLE3=Tape Five - Longitude
TTITLE4=DAB - Genesis
TTITLE5=Deeper Feat. Pacific and Daniela Ferraz - Una Passion perdida
TTITLE6=Mahara McKay - Soulsmooth
TTITLE7=Alexander Vögele Feat. Jillene Luce - Soul Connection
TTITLE8=Rue Du Soleil - Missing
TTITLE9=Caina - Do tara Alap
TTITLE10=Camino Del Sol - Dans les Rues de Barcelone
TTITLE11=Elenah - Luz de Hielo
TTITLE12=Steen Thottrup - El Alba
TTITLE13=Almadrava - Land of eternal Sunset
TTITLE14=Michael Hornstein - Carma
TTITLE15=Elmara - Training
EXTD=
EXTT0=
EXTT1=
EXTT2=
EXTT3=
EXTT4=
EXTT5=
EXTT6=
EXTT7=
EXTT8=
EXTT9=
EXTT10=
EXTT11=
EXTT12=
EXTT13=
EXTT14=
EXTT15=
PLAYORDER=
